<?xml version="1.0" encoding="UTF-8"?>
<svg xmlns="http://www.w3.org/2000/svg" xmlns:xlink="http://www.w3.org/1999/xlink" version="1.1" id="Layer_1" x="0px" y="0px" width="100%" viewBox="0 0 296 312" enable-background="new 0 0 296 312" xml:space="preserve" style="background: transparent;">

<path fill="#FCC604" opacity="1.000000" stroke="none" d=" M160.332550,244.207336   C154.034485,254.858261 148.465561,265.538239 141.848770,275.523865   C135.887146,284.520844 128.158783,292.115601 118.838417,297.857819   C107.746399,304.691498 95.847282,308.740356 82.655113,307.936951   C73.602264,307.385620 64.208069,307.917358 55.598450,305.608368   C40.491539,301.556946 28.281530,292.299805 18.588663,279.885864   C12.533345,272.130646 8.547352,263.378510 5.614895,254.064667   C2.330337,243.632538 1.949836,232.774826 3.351676,222.247620   C4.840098,211.070221 9.802601,200.723450 15.578374,190.924362   C22.946648,178.423431 30.159573,165.831009 37.511543,153.320389   C45.237534,140.173309 53.142502,127.130669 60.794609,113.941071   C67.597061,102.215996 74.092064,90.312889 80.850922,78.562080   C86.277466,69.127579 90.819511,59.025120 98.960365,51.473572   C103.721024,47.057545 109.069092,43.842159 115.606483,41.697311   C123.942467,38.962372 132.158020,38.328999 140.145416,40.272465   C152.414658,43.257763 162.625381,49.961555 169.055496,61.447330   C171.485382,65.787743 174.238541,69.947998 176.867722,74.175842   C180.466843,79.963409 179.840118,84.313599 175.987991,90.561165   C169.989334,100.290077 164.602142,110.394173 158.840073,120.271744   C156.523956,124.242134 153.901703,128.033905 150.639404,133.122711   C143.653549,121.173752 137.076767,109.924492 130.128586,98.039970   C125.158966,106.349670 120.498444,114.023026 115.959564,121.767685   C111.919968,128.660416 108.003876,135.625702 104.053352,142.570389   C98.018196,153.179657 92.057198,163.831589 85.958488,174.404114   C80.290680,184.229660 74.485229,193.975800 68.737770,203.755371   C64.987030,210.137436 60.783268,216.300430 57.577305,222.945068   C51.961670,234.583954 56.751568,254.171005 73.605385,256.220032   C86.699257,257.811951 94.099228,254.253464 100.742111,242.360016   C107.549461,230.172119 114.996071,218.343140 121.989784,206.256897   C127.800507,196.215042 133.253952,185.966507 139.060425,175.922104   C144.987442,165.669174 151.210098,155.587585 157.196915,145.368652   C163.852798,134.007660 170.405106,122.585815 176.971436,111.172592   C182.546234,101.482811 188.006607,91.726433 193.657120,82.081261   C196.416229,77.371590 199.245682,72.666374 202.471436,68.273529   C213.272018,53.565201 238.326019,57.611198 245.157150,73.886887   C249.254242,83.648521 248.065552,91.929176 242.991760,100.618698   C232.808334,118.059059 223.020493,135.730057 212.879333,153.195526   C204.304504,167.963440 195.324631,182.496536 186.780563,197.281799   C179.922546,209.149414 173.464508,221.247833 166.795441,233.225159   C164.789917,236.826996 162.671921,240.366196 160.332550,244.207336  z"/>
<path fill="#FCC504" opacity="1.000000" stroke="none" d=" M195.132324,208.101654   C198.115646,202.038132 200.902771,196.264313 204.103470,190.729675   C209.950241,180.619385 216.026672,170.641525 222.053970,160.636536   C222.675522,159.604782 223.612595,158.763092 224.917755,157.228119   C232.565292,171.079727 239.609756,184.329651 247.117081,197.311920   C256.407990,213.378525 266.221619,229.142502 275.541565,245.192764   C281.443420,255.356613 288.487793,265.271118 292.078400,276.258667   C296.617493,290.148590 289.369202,303.950989 275.444885,307.609070   C260.917297,311.425629 248.724243,305.063538 241.836365,291.477203   C237.098892,282.132477 231.258804,273.350342 226.005081,264.262665   C221.236557,256.014282 216.627579,247.673798 211.887680,239.408661   C206.835876,230.599686 201.676727,221.852097 196.659302,213.023773   C195.886368,211.663757 195.622131,210.014618 195.132324,208.101654  z"/>
<path fill="#FAC404" opacity="1.000000" stroke="none" d=" M229.742950,36.321129   C226.070038,29.195169 228.020416,22.652225 231.457031,16.851934   C236.248138,8.765474 243.230148,4.430351 253.360443,3.789734   C273.927124,2.489142 284.863739,23.008892 278.585602,39.150757   C275.572906,46.896744 269.125854,52.983322 259.714417,53.933056   C255.897812,54.318207 252.384262,55.164890 248.210648,54.215412   C238.999817,52.119987 231.628723,45.858276 229.742950,36.321129  z"/>
</svg>